<svg height="25px" viewBox="0 0 496 496" width="25px" xmlns="http://www.w3.org/2000/svg"><path d="m408 240v-120c0-8.832031-7.167969-16-16-16-8.839844 0-16 7.167969-16 16v80h-64v-80c0-8.832031-7.167969-16-16-16-8.839844 0-16 7.167969-16 16v120zm0 0" fill="#ecc19c"/><path d="m168 88c0 44.183594-35.816406 80-80 80s-80-35.816406-80-80 35.816406-80 80-80 80 35.816406 80 80zm0 0" fill="#e6e9ed"/><path d="m280 432.007812h112v56h-112zm0 0" fill="#f0d0b4"/><path d="m280 432.007812h112v39.992188h-112zm0 0" fill="#ecc19c"/><path d="m408 400 40 24-40 24h-144l-40-24 40-24zm0 0" fill="#ffc729"/><path d="m392 408v-44.921875c0-2.03125.390625-4.046875 1.144531-5.933594l13.71875-34.28125c.746094-1.894531 1.136719-3.910156 1.136719-5.941406v-92.921875h-136v104h24v80zm0 0" fill="#f0d0b4"/><path d="m264 224h-49.574219c-9.011719 0-17.425781-4.496094-22.425781-12s-13.414062-12-22.425781-12h-78.628907c-14.882812 0-26.945312 12.0625-26.945312 26.945312v58.109376c0 14.882812 12.0625 26.945312 26.945312 26.945312h78.628907c9.011719 0 17.425781-4.496094 22.425781-12s13.414062-12 22.425781-12h49.574219zm0 0" fill="#838f9b"/><path d="m264 224v64h216c4.414062 0 8-3.585938 8-8v-48c0-4.414062-3.585938-8-8-8zm0 0" fill="#838f9b"/><path d="m344 200v-16c0-8.832031 7.160156-16 16-16 8.832031 0 16 7.167969 16 16v64c0 8.832031-7.167969 16-16 16-8.839844 0-16-7.167969-16-16zm0 0" fill="#ecc19c"/><path d="m344 200v-16c0-8.832031-7.167969-16-16-16-8.839844 0-16 7.167969-16 16v64c0 8.832031 7.160156 16 16 16 8.832031 0 16-7.167969 16-16zm0 0" fill="#ecc19c"/><path d="m328 168v96c8.832031 0 16-7.167969 16-16v-64c0-8.832031-7.167969-16-16-16zm0 0" fill="#f0d0b4"/><path d="m328 312c0-24.992188-12.496094-48.328125-33.28125-62.183594l-14.71875-9.816406v-8h56c8.839844 0 16-7.167969 16-16s-7.167969-16-16-16h-67.71875c-2.671875 0-5.167969 1.335938-6.65625 3.558594l-12.28125 18.425781c-.871094 1.3125-1.34375 2.855469-1.34375 4.441406v65.804688c0 2.480469.574219 4.929687 1.6875 7.152343l28.625 57.25c1.113281 2.207032 1.6875 4.65625 1.6875 7.144532v44.222656h48zm0 0" fill="#f0d0b4"/><path d="m264 456v-64h144v64zm0 0" fill="#ffeaa7"/><path d="m88 128-41.375-41.375c-4.242188-4.242188-6.625-10-6.625-16 0-12.488281 10.136719-22.625 22.625-22.625 6 0 11.757812 2.382812 16 6.625l9.375 9.375 9.375-9.375c4.242188-4.242188 10-6.625 16-6.625 12.488281 0 22.625 10.136719 22.625 22.625 0 6-2.382812 11.757812-6.625 16zm0 0" fill="#ff826e"/><path d="m424 224h32v64h-32zm0 0" fill="#e6e9ed"/><path d="m360 168v96c8.832031 0 16-7.167969 16-16v-64c0-8.832031-7.167969-16-16-16zm0 0" fill="#f0d0b4"/><path d="m296 416h16v16h-16zm0 0"/><path d="m360 416h16v16h-16zm0 0"/><path d="m480 216h-64v-96c0-13.230469-10.769531-24-24-24s-24 10.769531-24 24v41.472656c-2.511719-.898437-5.183594-1.472656-8-1.472656-6.167969 0-11.742188 2.40625-16 6.238281-4.257812-3.839843-9.832031-6.238281-16-6.238281-2.816406 0-5.488281.574219-8 1.472656v-41.472656c0-13.230469-10.769531-24-24-24s-24 10.769531-24 24v72h-3.71875c-5.359375 0-10.335938 2.664062-13.3125 7.128906l-11.25 16.871094h-29.292969c-6.355469 0-12.242187-3.160156-15.769531-8.441406-6.496094-9.734375-17.367188-15.558594-29.082031-15.558594h-78.628907c-19.273437 0-34.945312 15.679688-34.945312 34.945312v58.109376c0 19.265624 15.671875 34.945312 34.945312 34.945312h78.628907c11.714843 0 22.585937-5.824219 29.082031-15.558594 3.519531-5.28125 9.414062-8.441406 15.769531-8.441406h26.015625c.382813 2.40625 1 4.777344 2.085938 6.953125l28.625 57.246094c.550781 1.105469.847656 2.335937.847656 3.578125v20.222656h-16v11.472656l-47.550781 28.527344 47.550781 28.527344v11.472656h16v32h128v-32h16v-11.472656l47.550781-28.527344-47.550781-28.527344v-11.472656h-16v-20.921875c0-1.015625.191406-2.023437.566406-2.964844l13.730469-34.296875c1.128906-2.855468 1.703125-5.847656 1.703125-8.894531v-20.921875h64c8.824219 0 16-7.175781 16-16v-48c0-8.824219-7.175781-16-16-16zm-376 64h16v24h-16zm0-32h16v16h-16zm-16 16h-16v-16h16zm16-56h16v24h-16zm48 56h-16v-16h16zm-16 16h16v24h-16zm16-48h-16v-24h16zm-64-23.703125v23.703125h-16v-5.054688c0-9.433593 6.960938-17.21875 16-18.648437zm-16 76.757813v-5.054688h16v23.703125c-9.039062-1.429687-16-9.214844-16-18.648437zm113.34375 10.503906c-3.519531 5.28125-9.414062 8.441406-15.769531 8.441406h-1.574219v-96h1.574219c6.355469 0 12.242187 3.160156 15.769531 8.441406 5.289062 7.925782 13.480469 13.191406 22.65625 14.902344v16.65625h16v-16h16v48h-16v-16h-16v16.65625c-9.175781 1.710938-17.367188 6.984375-22.65625 14.902344zm140.144531-23.816406c.839844.089843 1.648438.257812 2.511719.257812 6.167969 0 11.742188-2.40625 16-6.238281 4.257812 3.839843 9.832031 6.238281 16 6.238281 13.230469 0 24-10.769531 24-24v-16h32v48h-86.535156c-1.183594-2.824219-2.488282-5.585938-3.976563-8.257812zm10.511719-23.742188c0 4.414062-3.59375 8-8 8s-8-3.585938-8-8v-8h16zm-32-1.160156c-1.601562-1.246094-3.144531-2.542969-4.839844-3.679688l-4.734375-3.160156h9.574219zm128-14.839844h16v48h-16zm-48-112c0-4.414062 3.59375-8 8-8s8 3.585938 8 8v96h-16zm-24 56c4.40625 0 8 3.585938 8 8v64c0 4.414062-3.59375 8-8 8s-8-3.585938-8-8v-14.238281c4.871094-4.394531 8-10.699219 8-17.761719s-3.128906-13.359375-8-17.761719v-14.238281c0-4.414062 3.59375-8 8-8zm-32 0c4.40625 0 8 3.585938 8 8v8h-16v-8c0-4.414062 3.59375-8 8-8zm-40-56c0-4.414062 3.59375-8 8-8s8 3.585938 8 8v72h-16zm-48.449219 304 16.449219-9.871094v19.742188zm144.449219 56h-96v-16h96zm16-32h-128v-48h128zm32.449219-24-16.449219 9.871094v-19.742188zm-32.449219-107.078125c0 1.015625-.191406 2.023437-.566406 2.964844l-13.730469 34.296875c-1.128906 2.855468-1.703125 5.847656-1.703125 8.894531v20.921875h-96v-20.222656c0-3.707032-.871094-7.417969-2.527344-10.730469l-28.625-57.246094c-.550781-1.105469-.847656-2.335937-.847656-3.578125v-65.808594l12.28125-18.414062h67.71875c4.40625 0 8 3.585938 8 8s-3.59375 8-8 8h-64v20.28125l18.28125 12.183594c18.605469 12.40625 29.71875 33.167968 29.71875 55.535156h16c0-5.449219-.679688-10.769531-1.710938-16h65.710938zm80-36.921875h-16v-48h16zm0 0"/><path d="m135.03125 92.28125c5.785156-5.785156 8.96875-13.472656 8.96875-21.65625 0-16.882812-13.734375-30.625-30.625-30.625-8.183594 0-15.871094 3.183594-21.65625 8.96875l-3.71875 3.71875-3.71875-3.71875c-5.785156-5.785156-13.472656-8.96875-21.65625-8.96875-16.890625 0-30.625 13.742188-30.625 30.625 0 8.175781 3.183594 15.871094 8.96875 21.65625l47.03125 47.03125zm-87.03125-21.65625c0-8.066406 6.558594-14.625 14.625-14.625 3.847656 0 7.621094 1.558594 10.34375 4.28125l15.03125 15.03125 15.03125-15.03125c2.722656-2.722656 6.488281-4.28125 10.34375-4.28125 8.066406 0 14.625 6.558594 14.625 14.625 0 3.847656-1.558594 7.621094-4.28125 10.34375l-35.71875 35.71875-35.71875-35.71875c-2.722656-2.722656-4.28125-6.488281-4.28125-10.34375zm0 0"/><path d="m176 88c0-48.519531-39.480469-88-88-88s-88 39.480469-88 88 39.480469 88 88 88 88-39.480469 88-88zm-160 0c0-39.703125 32.304688-72 72-72s72 32.296875 72 72-32.304688 72-72 72-72-32.296875-72-72zm0 0"/></svg>