<svg id="Layer_3" enable-background="new 0 0 64 64" height="25px" viewBox="0 0 64 64" width="25px" xmlns="http://www.w3.org/2000/svg"><path d="m2 58h60v4h-60z" fill="#4e4e4e"/><path d="m2 58h57v4h-57z" fill="#686868"/><circle cx="14" cy="14" fill="#ed6863" r="8"/><circle cx="14" cy="14" fill="#a1a1aa" r="4"/><ellipse cx="12.5" cy="14" fill="#d7d7e2" rx="2.5" ry="3.703"/><path d="m15 38 10-10 3 3-7 7z" fill="#b3b6c2"/><path d="m6 38h18v4h-18z" fill="#434549"/><path d="m6 38h15v4h-15z" fill="#65676e"/><path d="m8 42h14v16h-14z" fill="#868992"/><path d="m8 42h11v16h-11z" fill="#b3b6c2"/><path d="m22 48-1.293-1.293c-.453-.453-1.067-.707-1.707-.707-.64 0-1.254.254-1.707.707l-.586.586c-.453.453-1.067.707-1.707.707-.64 0-1.254-.254-1.707-.707l-.586-.586c-.453-.453-1.067-.707-1.707-.707-.64 0-1.254.254-1.707.707l-1.293 1.293v10h14z" fill="#5f9747"/><path d="m19 46c-.64 0-1.254.254-1.707.707l-.586.586c-.453.453-1.067.707-1.707.707s-1.254-.254-1.707-.707l-.586-.586c-.453-.453-1.067-.707-1.707-.707s-1.254.254-1.707.707l-1.293 1.293v10h11z" fill="#7ec95f"/><path d="m50 58v-10h-18v10" fill="#868992"/><path d="m32 48h15v10h-15z" fill="#b3b6c2"/><path d="m39 44h4v4h-4z" fill="#65676e"/><path d="m32 40h18v4h-18z" fill="#868992"/><path d="m32 40h15v4h-15z" fill="#b3b6c2"/><path d="m48 40v-4h-14v4" fill="#5f9747"/><path d="m34 36h11v4h-11z" fill="#7ec95f"/><path d="m44 26v4h-6v-4" fill="#868992"/><path d="m38 26h3v4h-3z" fill="#b3b6c2"/><path d="m38 8v-6h6v6" fill="#434549"/><path d="m38 2h3v6h-3z" fill="#65676e"/><path d="m34 22h14v4h-14z" fill="#434549"/><path d="m34 22h11v4h-11z" fill="#65676e"/><path d="m46 10h4c6.627 0 12 5.373 12 12v20c0 6.627-5.373 12-12 12v-4c4.418 0 8-3.582 8-8v-20c0-4.418-3.582-8-8-8h-4z" fill="#b3b6c2"/><path d="m36 8h10v14h-10z" fill="#868992"/><path d="m36 8h7v14h-7z" fill="#b3b6c2"/><path d="m51 58h-2v-9h-16v9h-2v-10c0-.553.448-1 1-1h18c.552 0 1 .447 1 1z"/><path d="m50 45h-18c-.552 0-1-.447-1-1v-4c0-.553.448-1 1-1h18c.552 0 1 .447 1 1v4c0 .553-.448 1-1 1zm-17-2h16v-2h-16z"/><path d="m42 44h2v4h-2z"/><path d="m38 44h2v4h-2z"/><path d="m47 22h-2v-13h-8v13h-2v-14c0-.553.448-1 1-1h10c.552 0 1 .447 1 1z"/><path d="m48 27h-14c-.552 0-1-.447-1-1v-4c0-.553.448-1 1-1h14c.552 0 1 .447 1 1v4c0 .553-.448 1-1 1zm-13-2h12v-2h-12z"/><path d="m44 31h-6c-.552 0-1-.447-1-1v-4h2v3h4v-3h2v4c0 .553-.448 1-1 1z"/><path d="m49 40h-2v-3h-12v3h-2v-4c0-.553.448-1 1-1h14c.552 0 1 .447 1 1z"/><path d="m50 51v-2c3.86 0 7-3.141 7-7v-20c0-3.859-3.14-7-7-7h-4v-2h4c4.962 0 9 4.037 9 9v20c0 4.963-4.038 9-9 9z"/><path d="m50 55v-2c6.065 0 11-4.935 11-11v-20c0-6.065-4.935-11-11-11h-4v-2h4c7.168 0 13 5.832 13 13v20c0 7.168-5.832 13-13 13z"/><path d="m62 63h-60c-.552 0-1-.447-1-1v-4c0-.553.448-1 1-1h60c.552 0 1 .447 1 1v4c0 .553-.448 1-1 1zm-59-2h58v-2h-58z"/><path d="m45 8h-2v-5h-4v5h-2v-6c0-.553.448-1 1-1h6c.552 0 1 .447 1 1z"/><path d="m14 23c-4.962 0-9-4.037-9-9s4.038-9 9-9 9 4.037 9 9-4.038 9-9 9zm0-16c-3.86 0-7 3.141-7 7s3.14 7 7 7 7-3.141 7-7-3.14-7-7-7z"/><path d="m13 2h2v4h-2z"/><path d="m13 22h2v4h-2z"/><path d="m22 13h4v2h-4z"/><path d="m2 13h4v2h-4z"/><path d="m19.379 5.5h4.243v2h-4.243z" transform="matrix(.707 -.707 .707 .707 1.701 17.107)"/><path d="m5.5 4.379h2v4.243h-2z" transform="matrix(.707 -.707 .707 .707 -2.692 6.5)"/><path d="m4.379 20.5h4.243v2h-4.243z" transform="matrix(.707 -.707 .707 .707 -13.299 10.893)"/><path d="m20.5 19.379h2v4.243h-2z" transform="matrix(.707 -.707 .707 .707 -8.906 21.5)"/><path d="m14 19c-2.757 0-5-2.243-5-5s2.243-5 5-5 5 2.243 5 5-2.243 5-5 5zm0-8c-1.654 0-3 1.346-3 3s1.346 3 3 3 3-1.346 3-3-1.346-3-3-3z"/><path d="m24 43h-18c-.552 0-1-.447-1-1v-4c0-.553.448-1 1-1h18c.552 0 1 .447 1 1v4c0 .553-.448 1-1 1zm-17-2h16v-2h-16z"/><path d="m15 49c-.913 0-1.77-.355-2.415-1l-.585-.586c-.534-.535-1.466-.535-2 0l-1.293 1.293-1.414-1.414 1.293-1.293c1.288-1.289 3.54-1.289 4.829 0l.585.586c.534.535 1.466.535 2 0l.586-.586c1.288-1.289 3.54-1.289 4.829 0l1.292 1.293-1.414 1.414-1.293-1.293c-.534-.535-1.466-.535-2 0l-.586.586c-.644.645-1.501 1-2.414 1z"/><path d="m21.707 38.707-1.414-1.414 6.293-6.293-1.586-1.586-9.293 9.293-1.414-1.414 10-10c.391-.391 1.023-.391 1.414 0l3 3c.391.391.391 1.023 0 1.414z"/><path d="m7 43h2v15h-2z"/><path d="m21 43h2v15h-2z"/></svg>