
<!-- Generator: Adobe Illustrator 19.0.0, SVG Export Plug-In . SVG Version: 6.00 Build 0)  -->
<svg version="1.1" id="Layer_1" xmlns="http://www.w3.org/2000/svg" xmlns:xlink="http://www.w3.org/1999/xlink" x="0px" y="0px"
	 viewBox="0 0 512 512" style="enable-background:new 0 0 512 512;" xml:space="preserve">
<path style="fill:#F4EECB;" d="M460.8,248.063H51.2c-23.812,0-43.116-19.304-43.116-43.116V156.42
	c0-23.812,19.304-43.116,43.116-43.116h409.6c23.812,0,43.116,19.304,43.116,43.116v48.527
	C503.916,228.759,484.612,248.063,460.8,248.063z"/>
<path style="fill:#BFBBA3;" d="M70.063,180.145v1.078c0,4.466-3.62,8.085-8.084,8.085s-8.084-3.62-8.084-8.085v-1.078
	c0-4.466,3.62-8.085,8.084-8.085S70.063,175.679,70.063,180.145z M94.316,172.06c-4.465,0-8.084,3.62-8.084,8.085v1.078
	c0,4.466,3.62,8.085,8.084,8.085s8.084-3.62,8.084-8.085v-1.078C102.4,175.679,98.78,172.06,94.316,172.06z M126.653,172.06
	c-4.465,0-8.084,3.62-8.084,8.085v1.078c0,4.466,3.62,8.085,8.084,8.085s8.084-3.62,8.084-8.085v-1.078
	C134.737,175.679,131.117,172.06,126.653,172.06z"/>
<path style="fill:#E2DCBC;" d="M187.127,113.305h201.746c33.977,37.491,43.328,89.351,28.067,134.758h-257.88
	C143.8,202.654,153.15,150.795,187.127,113.305z"/>
<path style="fill:#84A7B7;" d="M497.601,353.254l-60.975-60.985c-8.418-8.421-22.069-8.421-30.487,0l-24.322-24.326l-0.001,0.001
	c29.79-44.033,25.2-104.391-13.786-143.384c-44.199-44.207-115.86-44.207-160.059,0s-44.199,115.879,0,160.085
	c38.985,38.992,99.333,43.584,143.359,13.789l0,0l24.322,24.326c-8.418,8.421-8.418,22.072,0,30.493l60.975,60.985
	c8.418,8.421,22.069,8.421,30.487,0l30.487-30.493C506.021,375.326,506.021,361.674,497.601,353.254z"/>
<path style="fill:#256277;" d="M381.817,267.944l24.322,24.326l-30.487,30.493l-24.322-24.326c5.887-3.984,11.487-8.576,16.7-13.79
	C373.244,279.432,377.833,273.831,381.817,267.944z"/>
<path style="fill:#C3E4ED;" d="M363.453,204.603c0,41.678-33.781,75.464-75.453,75.464s-75.453-33.787-75.453-75.464
	s33.781-75.464,75.453-75.464S363.453,162.925,363.453,204.603z"/>
<path style="fill:#DCF3F9;" d="M333.187,144.164c11.765,8.813,20.861,20.986,25.89,35.091l-96.422,96.437
	c-14.102-5.031-26.274-14.128-35.084-25.894L333.187,144.164z M216.924,229.953c1.263,3.541,2.779,6.961,4.534,10.237
	l102.123-102.139c-3.275-1.755-6.694-3.271-10.235-4.534L216.924,229.953z"/>
<path style="fill:#FFFFFF;" d="M288.337,148.173c11.906,0,21.558,9.654,21.558,21.561c0,11.908-9.651,21.561-21.558,21.561
	c-11.906,0-21.558-9.654-21.558-21.561C266.779,157.827,276.43,148.173,288.337,148.173z"/>
<path style="fill:#4C4C4C;" d="M70.063,180.222v1.077c0,4.47-3.62,8.094-8.084,8.094s-8.084-3.624-8.084-8.094v-1.077
	c0-4.47,3.62-8.094,8.084-8.094S70.063,175.752,70.063,180.222z M94.316,172.129c-4.465,0-8.084,3.624-8.084,8.094v1.077
	c0,4.47,3.62,8.094,8.084,8.094s8.084-3.624,8.084-8.094v-1.077C102.4,175.752,98.78,172.129,94.316,172.129z M126.653,172.129
	c-4.465,0-8.084,3.624-8.084,8.094v1.077c0,4.47,3.62,8.094,8.084,8.094s8.084-3.624,8.084-8.094v-1.077
	C134.737,175.752,131.117,172.129,126.653,172.129z M397.834,256.164c-1.712,3.64-3.608,7.192-5.685,10.654l14.781,14.768
	c11.28-6.291,25.832-4.652,35.408,4.916l60.974,60.923c5.603,5.598,8.688,13.04,8.688,20.96c0,7.918-3.085,15.362-8.688,20.959
	l-30.487,30.461c-5.776,5.772-13.366,8.658-20.954,8.658c-7.588,0-15.178-2.886-20.954-8.658l-60.975-60.923
	c-5.603-5.598-8.688-13.041-8.688-20.96c0-5.139,1.3-10.077,3.744-14.443l-14.799-14.787
	c-46.555,27.785-107.884,21.669-147.937-18.349c-10.098-10.088-18.194-21.641-24.093-34.181H51.2c-28.231,0-51.2-22.956-51.2-51.172
	v-48.463c0-28.216,22.969-51.172,51.2-51.172h167.281c41.571-29.091,97.468-29.092,139.04,0H460.8c28.231,0,51.2,22.956,51.2,51.172
	v48.463c0,28.216-22.969,51.172-51.2,51.172h-62.966V256.164z M376.248,121.544c21.319,22.57,33.016,51.943,33.016,83.112
	c0,12.145-1.775,24.018-5.205,35.32H460.8c19.316,0,35.032-15.694,35.032-34.984v-48.463c0-19.291-15.716-34.984-35.032-34.984
	h-84.552V121.544z M166.736,204.656c0-31.169,11.698-60.543,33.016-83.112H51.2c-19.316,0-35.032,15.694-35.032,34.984v48.463
	c0,19.291,15.716,34.984,35.032,34.984h120.743C168.513,228.674,166.737,216.801,166.736,204.656z M381.362,328.422
	c-2.541,2.538-3.941,5.913-3.941,9.502s1.399,6.963,3.941,9.502l60.975,60.923c5.257,5.251,13.81,5.251,19.066,0l30.487-30.461
	c2.541-2.538,3.941-5.913,3.941-9.502s-1.399-6.963-3.941-9.502l-60.974-60.923c-5.258-5.252-13.811-5.253-19.066,0L381.362,328.422
	z M382.753,280.301c-2.798,3.486-5.803,6.838-9.012,10.045c-3.214,3.212-6.563,6.203-10.034,8.979l11.945,11.934l19.043-19.027
	L382.753,280.301z M393.094,204.656c0.001-28.04-10.93-54.402-30.775-74.232c-40.98-40.945-107.66-40.943-148.638,0
	c-19.846,19.829-30.776,46.192-30.776,74.232c0.001,13.81,2.652,27.214,7.713,39.63c0.231,0.437,0.424,0.897,0.572,1.375
	c5.205,12.26,12.781,23.525,22.49,33.226c36.123,36.091,92.214,40.368,133.068,12.833c0.045-0.03,0.089-0.06,0.135-0.091
	c5.444-3.681,10.618-7.93,15.435-12.743c4.674-4.671,8.853-9.702,12.512-15.033c0.182-0.314,0.388-0.617,0.617-0.909
	c3.675-5.477,6.804-11.259,9.362-17.284c0.149-0.479,0.342-0.939,0.572-1.375C390.444,231.87,393.094,218.466,393.094,204.656z
	 M347.064,145.62c15.783,15.769,24.474,36.734,24.474,59.035c0,22.303-8.691,43.268-24.474,59.036
	c-16.282,16.269-37.677,24.404-59.063,24.406c-21.393,0.001-42.778-8.134-59.063-24.406c-15.783-15.769-24.474-36.734-24.474-59.036
	c0-22.302,8.691-43.268,24.474-59.035C261.504,113.08,314.496,113.079,347.064,145.62z M355.368,204.656
	c0-17.972-7.005-34.868-19.725-47.578c-13.135-13.123-30.389-19.686-47.643-19.686c-17.254,0-34.507,6.561-47.642,19.686
	c-12.72,12.709-19.727,29.607-19.727,47.578s7.006,34.869,19.727,47.578c26.27,26.248,69.014,26.249,95.285,0
	C348.363,239.524,355.368,222.628,355.368,204.656z"/>
<g>
</g>
<g>
</g>
<g>
</g>
<g>
</g>
<g>
</g>
<g>
</g>
<g>
</g>
<g>
</g>
<g>
</g>
<g>
</g>
<g>
</g>
<g>
</g>
<g>
</g>
<g>
</g>
<g>
</g>
</svg>
