<svg height="25px" viewBox="-4 0 512 512.00111" width="25px" xmlns="http://www.w3.org/2000/svg"><path d="m39.84375 8.390625c-7.5625.90625-13.890625 6.207031-16.175781 13.472656-7.515625 23.871094-20.363281 80.960938 6.574219 134.109375l127.875-109.007812s-47.394532-47.0546878-118.273438-38.574219zm0 0" fill="#de8957"/><path d="m21.480469 120.8125c-.910157 1.445312-1.796875 2.902344-2.671875 4.363281 2.558594 10.234375 6.261718 20.589844 11.433594 30.796875l127.875-109.007812s-8.652344-8.582032-24.074219-17.753906c-57.359375 22.089843-91.988281 58.863281-112.5625 91.601562zm0 0" fill="#c76d33"/><path d="m61.304688 47.765625c-2.625 0-4.890626 1.839844-5.488282 4.398437-5.410156 23.226563-9.703125 61.695313 8.007813 96.644532l75.578125-70.957032c-2.875-2.707031-33.070313-30.085937-78.050782-30.085937zm78.101562 30.085937h-.003906c.074218.074219.144531.136719.179687.175782zm0 0" fill="#f9e09d"/><path d="m464.429688 8.390625c7.558593.90625 13.890624 6.207031 16.175781 13.472656 7.515625 23.871094 20.359375 80.960938-6.574219 134.109375l-127.875-109.007812s47.394531-47.0546878 118.273438-38.574219zm0 0" fill="#de8957"/><path d="m485.464844 125.175781c-.875-1.460937-1.761719-2.917969-2.671875-4.363281-20.574219-32.738281-55.207031-69.511719-112.5625-91.601562-15.425781 9.171874-24.074219 17.753906-24.074219 17.753906l127.875 109.011718c5.171875-10.210937 8.875-20.566406 11.433594-30.800781zm0 0" fill="#c76d33"/><path d="m442.921875 47.765625c-44.984375 0-75.175781 27.378906-78.050781 30.085937l75.574218 70.957032c17.714844-34.949219 13.421876-73.417969 8.007813-96.644532-.59375-2.558593-2.859375-4.398437-5.488281-4.398437zm-78.234375 30.261719c.039062-.039063.105469-.101563.183594-.175782h-.003906zm0 0" fill="#f9e09d"/><g fill="#f8b459"><path d="m364.6875 78.027344c.039062-.039063.105469-.101563.183594-.175782h-.003906zm0 0"/><path d="m414.335938 51.503906c-28.855469 7.585938-47.253907 24.265625-49.464844 26.347656l75.574218 70.957032c11.222657-22.140625 13.605469-45.6875 12.476563-65.882813-10.828125-11.042969-23.578125-21.75-38.585937-31.421875zm0 0"/><path d="m139.40625 77.851562h-.003906c.074218.074219.144531.136719.183594.175782zm0 0"/><path d="m51.351562 82.925781c-1.132812 20.195313 1.253907 43.746094 12.476563 65.886719l75.574219-70.960938c-2.210938-2.082031-20.613282-18.761718-49.464844-26.347656-15.007812 9.671875-27.761719 20.378906-38.585938 31.421875zm0 0"/></g><path d="m252.136719 33.820312c-245.691407 0-271.976563 222.722657-226.265625 317.707032 35.871094 74.542968 154.789062 128.914062 204.320312 148.863281 14.035156 5.652344 29.855469 5.652344 43.890625 0 49.527344-19.953125 168.449219-74.320313 204.320313-148.863281 45.710937-94.984375 19.425781-317.707032-226.265625-317.707032zm0 0" fill="#de8957"/><path d="m55.417969 358.175781c-44.78125-95.003906-20.453125-315.164062 211.574219-324.070312-4.863282-.183594-9.808594-.285157-14.855469-.285157-245.691407 0-271.976563 222.722657-226.265625 317.710938 35.871094 74.539062 154.789062 128.910156 204.320312 148.863281 5.058594 2.035157 10.347656 3.328125 15.703125 3.898438-55.054687-23.96875-157.613281-76.398438-190.476562-146.117188zm0 0" fill="#c76d33"/><path d="m252.136719 469.078125c113.910156-24.019531 167.042969-75.699219 167.042969-183.785156 0-42.207031-34.214844-76.425781-76.425782-76.425781-39.394531 0-60.914062 29.8125-65.058594 68.105468l-25.011718 10.503906-26.105469-10.503906c-4.148437-38.292968-25.664063-68.105468-65.058594-68.105468-42.210937 0-76.425781 34.21875-76.425781 76.425781 0 108.085937 53.132812 159.765625 167.042969 183.785156" fill="#f9e09d"/><path d="m282.90625 282.039062c-.007812-2.824218-2.390625-5.066406-5.210938-5.066406h-51.117187c-2.824219 0-5.207031 2.242188-5.214844 5.066406v.050782c0 12.597656 16.851563 22.820312 32.753907 22.820312 15.898437 0 28.789062-10.222656 28.789062-22.820312 0-.015625 0-.035156 0-.050782zm0 0" fill="#423e4f"/><path d="m176.445312 152.683594-14.25-6.246094c-8.285156-3.628906-17.941406.144531-21.574218 8.425781-3.628906 8.285157.144531 17.945313 8.425781 21.574219l14.25 6.246094c8.285156 3.628906 17.941406-.144532 21.574219-8.425782 3.628906-8.285156-.140625-17.945312-8.425782-21.574218zm0 0" fill="#f8b459"/><path d="m327.828125 152.683594 14.25-6.246094c8.285156-3.628906 17.941406.144531 21.574219 8.425781 3.628906 8.285157-.144532 17.945313-8.425782 21.574219l-14.25 6.246094c-8.285156 3.628906-17.945312-.144532-21.574218-8.425782-3.632813-8.285156.140625-17.945312 8.425781-21.574218zm0 0" fill="#f8b459"/><path d="m164.707031 299.007812h-20.027343c-4.078126 0-7.386719 3.308594-7.386719 7.386719 0 4.082031 3.308593 7.386719 7.386719 7.386719h20.027343c4.078125 0 7.386719-3.304688 7.386719-7.386719 0-4.078125-3.308594-7.386719-7.386719-7.386719zm0 0" fill="#ff889e"/><path d="m359.589844 299.007812h-20.023438c-4.078125 0-7.386718 3.308594-7.386718 7.386719 0 4.082031 3.308593 7.386719 7.386718 7.386719h20.023438c4.082031 0 7.386718-3.304688 7.386718-7.386719 0-4.078125-3.304687-7.386719-7.386718-7.386719zm0 0" fill="#ff889e"/><path d="m237.109375 342.808594c5.433594 0 10.640625-1.550782 15.019531-4.375 4.378906 2.824218 9.585938 4.375 15.019532 4.375 7.984374 0 15.488281-3.34375 20.582031-9.171875 2.6875-3.070313 2.371093-7.738281-.699219-10.421875s-7.738281-2.371094-10.421875.699218c-2.289063 2.621094-5.738281 4.121094-9.460937 4.121094-3.722657 0-7.167969-1.5-9.457032-4.121094-2.894531-3.308593-8.230468-3.308593-11.125 0-2.289062 2.621094-5.734375 4.121094-9.457031 4.121094s-7.171875-1.5-9.460937-4.121094c-2.683594-3.070312-7.351563-3.382812-10.421876-.699218-3.070312 2.683594-3.386718 7.351562-.699218 10.421875 5.09375 5.828125 12.59375 9.171875 20.582031 9.171875zm0 0"/><path d="m168.851562 289.507812c4.082032 0 7.386719-3.304687 7.386719-7.386718v-14.800782c0-4.078124-3.304687-7.386718-7.386719-7.386718-4.078124 0-7.386718 3.308594-7.386718 7.386718v14.800782c0 4.082031 3.308594 7.386718 7.386718 7.386718zm0 0"/><path d="m160.324219 189.464844c11.875 5.207031 26.109375-.371094 31.304687-12.226563 5.203125-11.867187-.394531-26.117187-12.226562-31.300781 0 0-14.246094-6.242188-14.25-6.246094-11.867188-5.203125-26.105469.371094-31.300782 12.226563-5.261718 12.003906.222657 26.042969 12.226563 31.304687-.003906 0 14.242187 6.242188 14.246094 6.242188zm-12.945313-31.617188c1.964844-4.480468 7.375-6.582031 11.84375-4.625l14.25 6.246094c4.539063 1.988281 6.613282 7.300781 4.625 11.839844-1.964844 4.488281-7.367187 6.585937-11.839844 4.628906l-14.25-6.246094c-4.542968-1.988281-6.617187-7.300781-4.628906-11.84375zm0 0"/><path d="m334.402344 191.390625c3.214844.035156 6.460937-.578125 9.53125-1.925781l14.25-6.242188c12-5.261718 17.484375-19.300781 12.226562-31.304687-5.179687-11.820313-19.492187-17.402344-31.304687-12.226563 0 0-14.242188 6.242188-14.25 6.246094-11.851563 5.191406-17.421875 19.445312-12.226563 31.300781 3.816406 8.710938 12.664063 14.046875 21.773438 14.152344zm-3.617188-31.921875s14.242188-6.242188 14.25-6.246094c4.492188-1.96875 9.875.136719 11.84375 4.625 1.988282 4.542969-.085937 9.855469-4.628906 11.84375 0 0-14.246094 6.242188-14.246094 6.242188-4.492187 1.96875-9.875-.132813-11.84375-4.625-1.988281-4.539063.085938-9.851563 4.625-11.839844zm0 0"/><path d="m335.40625 289.507812c4.078125 0 7.386719-3.304687 7.386719-7.386718v-14.800782c0-4.078124-3.308594-7.386718-7.386719-7.386718-4.082031 0-7.386719 3.308594-7.386719 7.386718v14.800782c0 4.082031 3.304688 7.386718 7.386719 7.386718zm0 0"/><path d="m500.441406 215.957031c-.691406-4.019531-4.507812-6.71875-8.53125-6.027343-4.023437.691406-6.722656 4.511718-6.03125 8.53125 7.96875 46.371093 2.679688 94.925781-14.140625 129.882812-14.90625 30.972656-46.636719 61.875-94.3125 91.851562-38.847656 24.425782-79.144531 42.5-106.109375 53.363282-12.195312 4.910156-26.179687 4.910156-38.375 0-26.996094-10.875-79.0625-33.847656-124.472656-65.507813-3.34375-2.335937-7.949219-1.515625-10.28125 1.832031-2.335938 3.347657-1.511719 7.953126 1.832031 10.285157 46.601563 32.5 99.824219 55.984375 127.402344 67.09375 15.679687 6.316406 33.734375 6.320312 49.414063 0 50.285156-20.253907 171.234374-75.664063 208.210937-152.511719 18.105469-37.617188 23.859375-89.503906 15.394531-138.792969zm0 0"/><path d="m76.105469 422.121094c3.070312 2.515625 7.824219 2.105468 10.394531-1.027344 2.585938-3.15625 2.125-7.808594-1.027344-10.394531-25.148437-20.621094-42.964844-41.597657-52.953125-62.355469-12.6875-26.367188-19.074219-62.195312-17.515625-98.296875 1.023438-23.75 5.863282-57.066406 21.84375-90.78125.019532-.039063.046875-.070313.0625-.109375 18.84375-39.753906 48.800782-70.550781 87.703125-90.566406 42.121094-21.46875 88.871094-27.367188 127.515625-27.367188 31.019532 0 62.171875 3.546875 91.839844 12.824219 45.78125 14.265625 82.488281 40.859375 107.667969 77.6875 12.292969 17.980469 21.53125 38.054687 27.75 58.910156 1.164062 3.90625 5.28125 6.132813 9.1875 4.964844 3.910156-1.164063 6.132812-5.277344 4.96875-9.1875-3.132813-10.507813-6.933594-20.625-11.351563-30.316406 26.273438-55.097657 12.65625-113.558594 5.453125-136.445313-3.164062-10.042968-11.933593-17.339844-22.34375-18.585937-5.964843-.710938-12.007812-1.074219-17.964843-1.074219-54.144532 0-91.9375 28.992188-103.054688 38.683594-27.707031-8.136719-58.488281-12.230469-92.152344-12.230469-35.621094 0-66.082031 4.59375-92.132812 12.25-11.09375-9.675781-48.898438-38.703125-103.074219-38.703125-5.957031 0-12 .363281-17.960937 1.074219-10.414063 1.246093-19.183594 8.542969-22.347657 18.589843-7.199219 22.878907-20.8125 81.320313 5.4375 136.40625-12.910156 28.355469-20.375 60.113282-21.808593 93.339844-1.65625 38.457032 5.253906 76.851563 18.964843 105.339844 10.929688 22.710938 30.074219 45.378906 56.898438 67.371094zm369.429687-321.894532c-.863281-.945312-2.71875-2.867187-2.757812-2.90625-10.53125-11.199218-22.480469-21.0625-35.265625-29.582031-.070313-.050781-4.191407-2.746093-6.21875-3.996093 10.785156-4.507813 24.511719-8.34375 40.261719-8.558594 2.632812 11.691406 4.992187 27.6875 3.980468 45.042968zm1.800782-85.453124c5.371093 0 10.824218.328124 16.207031.96875 4.65625.558593 8.585937 3.839843 10.011719 8.355468 6.191406 19.679688 17.542968 67.703125-.082032 114.785156-4.507812-7.988281-9.46875-15.589843-14.859375-22.796874 4.175781-25.472657.757813-49.578126-2.972656-65.578126-1.386719-5.949218-6.601563-10.105468-12.726563-10.109374-24.085937 0-44.050781 7.476562-57.484374 14.484374-7.816407-3.960937-15.957032-7.511718-24.421876-10.648437 14.796876-11 45.683594-29.460937 86.328126-29.460937zm-388.613282 85.453124c-1.011718-17.359374 1.347656-33.351562 3.980469-45.042968 15.746094.210937 29.488281 4.050781 40.28125 8.5625-.238281.148437-.46875.304687-.703125.449218-11.550781 7.175782-22.410156 15.464844-32.347656 24.742188-2.515625 2.238281-10.84375 10.886719-11.210938 11.289062zm-28.015625-76.128906c1.421875-4.515625 5.347657-7.796875 10.007813-8.355468 5.382812-.640626 10.835937-.96875 16.207031-.96875 40.488281 0 71.464844 18.488281 86.308594 29.484374-8.664063 3.21875-16.789063 6.78125-24.386719 10.632813-13.4375-7.007813-33.410156-14.492187-57.546875-14.492187-6.082031.003906-11.292969 4.160156-12.679687 10.109374-3.726563 15.996094-7.148438 40.089844-2.976563 65.546876-3.511719 4.695312-6.695313 9.363281-9.578125 13.949218-1.828125 2.90625-3.585938 5.871094-5.277344 8.875-17.625-47.078125-6.273437-95.101562-.078125-114.78125zm0 0"/><path d="m77.699219 285.3125c0 108.332031 51.710937 165.457031 172.90625 191.011719 1 .210937 2.046875.210937 3.046875 0 121.195312-25.554688 172.90625-82.679688 172.90625-191.011719 0-46.214844-37.597656-83.8125-83.8125-83.8125-20.714844 0-38.445313 7.671875-51.28125 22.1875-10.300782 11.648438-17.21875 27.429688-20.21875 45.917969h-38.234375c-2.996094-18.488281-9.917969-34.269531-20.21875-45.917969-12.832031-14.515625-30.566407-22.1875-51.28125-22.1875-46.214844 0-83.8125 37.597656-83.8125 83.8125zm197.554687-.933594c-.039062.171875-.242187.960938-.316406 1.179688-2.769531 8.355468-12.769531 11.984375-20.828125 11.984375-7.726563 0-16.050781-2.605469-21.679687-8.148438-.042969-.042969-.089844-.085937-.132813-.132812-1.316406-1.332031-2.550781-2.976563-3.152344-4.820313-.007812-.019531-.015625-.042968-.019531-.0625zm-113.742187-68.105468c16.59375 0 30.125 5.785156 40.214843 17.199218 8.539063 9.65625 14.296876 23.0625 16.800782 39.011719-2.769532 2.273437-4.542969 5.683594-4.554688 9.472656v.152344c0 17.800781 21.152344 30.203125 40.136719 30.203125 19.949219 0 36.175781-13.550781 36.175781-30.277344 0-.015625 0-.03125 0-.042968 0-2.6875-.964844-5.28125-2.558594-7.425782-.578124-.773437-1.25-1.464844-1.992187-2.078125 2.5-15.949219 8.257813-29.359375 16.800781-39.015625 10.089844-11.414062 23.617188-17.199218 40.210938-17.199218 38.070312 0 69.039062 30.96875 69.039062 69.039062 0 100.8125-46.285156 151.960938-159.65625 176.230469-113.371094-24.269531-159.65625-75.417969-159.65625-176.230469 0-38.066406 30.96875-69.039062 69.039063-69.039062zm0 0"/></svg>